<svg width="378" height="286" viewBox="0 0 378 286" fill="none" xmlns="http://www.w3.org/2000/svg">
<path d="M4.46999 254.536C4.46999 152.75 87.0932 70.2321 189.009 70.2321C290.925 70.2321 373.548 152.75 373.548 254.536" fill="#D2F5FF"/>
<mask id="mask0_4046_8" style="mask-type:luminance" maskUnits="userSpaceOnUse" x="3" y="70" width="371" height="185">
<path d="M3.96935 254.536C3.96935 152.75 86.5926 70.2321 188.508 70.2321C290.424 70.2321 373.047 152.75 373.047 254.536" fill="white"/>
</mask>
<g mask="url(#mask0_4046_8)">
<path d="M176.564 167.893C166.212 169.714 157.898 171.179 153.678 177.982C149.584 184.571 150.853 193.714 153.678 199.5C156.95 206.214 161.599 207.036 163.745 214.286C165.032 218.589 164.245 221.214 163.87 226.393C162.493 245.089 169.806 248.518 167.124 261.357C164.71 272.911 157.665 275.446 159.722 279.982C162.868 286.964 183.18 289.054 192.71 279.982C199.576 273.446 194.874 266.786 201.453 247.911C205.637 235.911 208.248 236.589 214.238 221.696C220.799 205.411 224.125 197.143 220.96 187.839C216.061 173.411 199.504 168.232 198.074 167.804C190.278 165.482 183.877 166.625 176.529 167.911L176.564 167.893Z" fill="#64C659"/>
<path d="M233.852 164.518C226.825 153.982 223.195 148.536 222.355 140.375C220.853 125.661 229.06 107.696 241.916 103.339C250.462 100.446 253.752 106.018 272.204 108.054C286.812 109.643 288.493 106.571 305.854 106.714C327.042 106.893 343.617 107.018 350.286 117.464C356.902 127.857 352.7 146.786 342.204 153.768C333.533 159.536 326.398 153.304 299.132 156.893C283.916 158.893 280.232 161.607 278.266 164.536C272.812 172.607 280.161 182.625 274.904 187.393C269.254 192.518 255.522 185.607 253.734 184.696C244.24 179.911 239.162 172.482 233.852 164.536V164.518Z" fill="#64C659"/>
<path d="M151.068 130.357C149.387 131.125 142.271 134.411 142.342 138.429C142.396 141.5 146.651 143.679 151.068 145.893C157.808 149.25 162.1 149.589 168.59 151.411C179.765 154.536 178.71 156.768 186.631 158.607C189.688 159.321 200.756 161.732 212.789 156.589C216.973 154.804 227.308 150.393 231.849 139.107C232.743 136.911 236.355 127.107 231.849 117.589C227.916 109.304 220.263 106.357 207.568 101.446C195.911 96.9464 178.478 90.2143 171.272 97.4107C168.626 100.054 167.642 104.554 165.658 113.554C163.995 121.125 164.406 124.446 161.384 126.982C158.559 129.339 156.575 127.821 151.05 130.375L151.068 130.357Z" fill="#64C659"/>
<path d="M52.1379 155.911C55.7139 158.625 54.0511 160.446 58.1992 166C60.0051 168.429 60.5773 168.411 73.6833 178C78.493 181.518 80.0306 182.696 81.765 182.143C84.7152 181.179 85.7522 176 85.8059 172.732C85.8774 168.125 83.9642 166.857 81.765 159.804C79.7446 153.286 78.2248 148.446 80.424 145.911C83.1239 142.786 88.3985 146.714 93.8876 143.161C97.7139 140.679 99.0013 136.286 99.9489 133.071C101.719 127.036 100.557 122.071 99.9489 119.625C98.9655 115.679 98.2503 112.714 95.908 111.554C92.5466 109.893 89.6679 113.857 83.7854 115.589C72.7177 118.839 67.6577 109.214 52.1558 110.929C44.9502 111.714 41.5172 114.286 40.7126 114.929C37.1009 117.75 35.6884 121.232 33.3103 127.054C30.3423 134.321 28.8046 138.089 30.1992 142.5C31.8621 147.804 36.7075 150.661 38.0306 151.429C44.1277 155.018 47.5428 152.446 52.1737 155.946L52.1379 155.911Z" fill="#64C659"/>
<path d="M90.848 190.857C96.3014 192.607 103.185 194.839 104.991 200.268C106.189 203.875 104.008 205.482 104.991 211.018C105.921 216.196 108.174 216.714 109.962 221.768C111.195 225.25 110.802 230.179 109.962 239.911C108.889 252.232 107.709 254.304 107.011 255.375C103.418 260.821 97.4815 262.661 95.5683 263.25C83.8748 266.857 68.7663 261.732 67.3001 254.714C66.4955 250.875 70.5185 250.018 74.3627 239.929C77.6347 231.357 77.5096 224.714 77.4023 222.446C77.1341 217.036 76.9553 213.357 74.3627 210.339C69.249 204.375 60.4342 207.696 58.5389 203.482C56.9834 200 61.3461 194.018 65.9412 190.982C74.2554 185.5 84.5185 188.804 90.848 190.839V190.857Z" fill="#64C659"/>
<path d="M305.568 216.071C294.787 216.446 279.911 220.196 279.321 226.214C278.82 231.393 288.743 242.857 292.123 244.446C293.75 245.214 310.682 252.786 328.473 244.446C333.425 242.125 334.087 225.946 334.051 222.054C333.962 215.446 321.66 215.5 305.568 216.071Z" fill="#64C659"/>
</g>
<path d="M4.46999 254.536C4.46999 152.75 87.0932 70.2321 189.009 70.2321C290.925 70.2321 373.548 152.75 373.548 254.536" stroke="black" stroke-width="5" stroke-miterlimit="10" stroke-linecap="round"/>
<path d="M189.009 4.46429H167.464C148.529 4.46429 133.885 24.3393 137.139 46.1607C137.997 51.9821 139.392 58.625 141.359 66.3393C150.496 102.25 173.275 145.893 190.904 145.893" fill="#FF5858"/>
<path d="M189.009 4.46429H167.464C148.529 4.46429 133.885 24.3393 137.139 46.1607C137.997 51.9821 139.392 58.625 141.359 66.3393C150.496 102.25 173.275 145.893 190.904 145.893" stroke="white" stroke-width="5" stroke-miterlimit="10" stroke-linecap="round"/>
<path d="M189.009 4.46429H210.554C229.489 4.46429 244.133 24.3393 240.879 46.1607C240.02 51.9821 238.626 58.625 236.659 66.3393C227.522 102.25 208.498 145.893 190.868 145.893" fill="#EA4747"/>
<path d="M189.009 4.46429H210.554C229.489 4.46429 244.133 24.3393 240.879 46.1607C240.02 51.9821 238.626 58.625 236.659 66.3393C227.522 102.25 208.498 145.893 190.868 145.893" stroke="white" stroke-width="5" stroke-miterlimit="10" stroke-linecap="round"/>
<path d="M189.009 66.0714C200.582 66.0714 209.964 56.7014 209.964 45.1429C209.964 33.5843 200.582 24.2143 189.009 24.2143C177.436 24.2143 168.054 33.5843 168.054 45.1429C168.054 56.7014 177.436 66.0714 189.009 66.0714Z" fill="white" stroke="#EA4747" stroke-width="5" stroke-miterlimit="10" stroke-linecap="round"/>
<path d="M165.354 247.857L157.63 247.964L173.9 182.429H202.026L180.284 259.589H146.097L126.125 196.946H136.424L116.434 259.589H82.2299L60.5057 182.429H88.7203L104.991 247.857L97.2669 247.75L117.364 182.429H145.167L165.354 247.857Z" fill="black"/>
<path d="M279.857 247.857L272.133 247.964L288.404 182.429H316.511L294.769 259.589H260.582L240.593 196.946H250.891L230.902 259.589H196.715L174.973 182.429H203.188L219.458 247.857L211.734 247.75L231.831 182.429H259.635L279.821 247.857H279.857Z" fill="black"/>
</svg>
