<svg width="33" height="55" viewBox="0 0 33 55" fill="none" xmlns="http://www.w3.org/2000/svg">
<path d="M12.5459 25.5975C12.5459 24.7691 11.8743 24.0975 11.0459 24.0975C10.2175 24.0975 9.5459 24.7691 9.5459 25.5975H11.0459H12.5459ZM9.98524 54.5606C10.571 55.1464 11.5208 55.1464 12.1066 54.5606L21.6525 45.0147C22.2383 44.4289 22.2383 43.4792 21.6525 42.8934C21.0667 42.3076 20.117 42.3076 19.5312 42.8934L11.0459 51.3787L2.56062 42.8934C1.97483 42.3076 1.02508 42.3076 0.439297 42.8934C-0.14649 43.4792 -0.14649 44.4289 0.439297 45.0147L9.98524 54.5606ZM11.0459 25.5975H9.5459L9.5459 53.5H11.0459H12.5459L12.5459 25.5975H11.0459Z" fill="black"/>
<path d="M19.5459 29.4025C19.5459 30.2309 20.2175 30.9025 21.0459 30.9025C21.8743 30.9025 22.5459 30.2309 22.5459 29.4025L21.0459 29.4025L19.5459 29.4025ZM22.1066 0.439367C21.5208 -0.14642 20.571 -0.14642 19.9852 0.439367L10.4393 9.98531C9.85351 10.5711 9.85351 11.5208 10.4393 12.1066C11.0251 12.6924 11.9748 12.6924 12.5606 12.1066L21.0459 3.62135L29.5312 12.1066C30.117 12.6924 31.0667 12.6924 31.6525 12.1066C32.2383 11.5208 32.2383 10.5711 31.6525 9.98531L22.1066 0.439367ZM21.0459 29.4025L22.5459 29.4025L22.5459 1.50003L21.0459 1.50003L19.5459 1.50003L19.5459 29.4025L21.0459 29.4025Z" fill="black"/>
</svg>
